# xmcd CD database file
#
# Track frame offsets:
#	150
#	37899
#	50325
#
# Disc length: 1104 seconds
#
# Revision: 0
# Processed by: cddbd v1.5.2PL0 Copyright (c) Steve Scherf et al.
# Submitted via: CDex 1.70beta1
#
DISCID=1a044e03
DTITLE=Stanley Clarke - World Cafe Live, Philadelphia, PA 2005-11-27 [CD 2]
DYEAR=2005
DGENRE=Jazz
TTITLE0=Intro
TTITLE1=Encore Clapping
TTITLE2=School Days (For Real)
EXTD=YEAR: 2005
EXTT0=
EXTT1=
EXTT2=
PLAYORDER=
